HIERARCHY
ROOT Hips
{
	OFFSET 0.000000 0.000000 0.000000
	CHANNELS 6 Xposition Yposition Zposition Zrotation Yrotation Xrotation 
	JOINT LHipJoint
	{
		OFFSET 0.000000 0.000000 0.000000
		CHANNELS 3 Zrotation Yrotation Xrotation
		JOINT LeftUpLeg
		{
			OFFSET 1.363060 -1.794630 0.839290
			CHANNELS 3 Zrotation Yrotation Xrotation
			JOINT LeftLeg
			{
				OFFSET 2.448110 -6.726130 0.000000
				CHANNELS 3 Zrotation Yrotation Xrotation
				JOINT LeftFoot
				{
					OFFSET 2.562200 -7.039590 0.000000
					CHANNELS 3 Zrotation Yrotation Xrotation
					JOINT LeftToeBase
					{
						OFFSET 0.157640 -0.433110 2.322550
						CHANNELS 3 Zrotation Yrotation Xrotation
						End Site
						{
							OFFSET 0.000000 0.000000 0.000000
						}
					}
				}
			}
		}
	}
	JOINT RHipJoint
	{
		OFFSET 0.000000 0.000000 0.000000
		CHANNELS 3 Zrotation Yrotation Xrotation
		JOINT RightUpLeg
		{
			OFFSET -1.305520 -1.794630 0.839290
			CHANNELS 3 Zrotation Yrotation Xrotation
			JOINT RightLeg
			{
				OFFSET -2.542530 -6.985550 0.000000
				CHANNELS 3 Zrotation Yrotation Xrotation
				JOINT RightFoot
				{
					OFFSET -2.568260 -7.056230 0.000000
					CHANNELS 3 Zrotation Yrotation Xrotation
					JOINT RightToeBase
					{
						OFFSET -0.164730 -0.452590 2.363150
						CHANNELS 3 Zrotation Yrotation Xrotation
						End Site
						{
							OFFSET 0.000000 0.000000 0.000000
						}
					}
				}
			}
		}
	}
	JOINT LowerBack
	{
		OFFSET 0.000000 0.000000 0.000000
		CHANNELS 3 Zrotation Yrotation Xrotation
		JOINT Spine
		{
			OFFSET 0.028270 2.035590 -0.193380
			CHANNELS 3 Zrotation Yrotation Xrotation
			JOINT Spine1
			{
				OFFSET 0.056720 2.048850 -0.042750
				CHANNELS 3 Zrotation Yrotation Xrotation
				JOINT Neck
				{
					OFFSET 0.000000 0.000000 0.000000
					CHANNELS 3 Zrotation Yrotation Xrotation
					JOINT Neck1
					{
						OFFSET -0.054170 1.746240 0.172020
						CHANNELS 3 Zrotation Yrotation Xrotation
						JOINT Head
						{
							OFFSET 0.104070 1.761360 -0.123970
							CHANNELS 3 Zrotation Yrotation Xrotation
							End Site
							{
								OFFSET 0.000000 0.000000 0.000000
							}
						}
					}
				}
				JOINT LeftShoulder
				{
					OFFSET 0.000000 0.000000 0.000000
					CHANNELS 3 Zrotation Yrotation Xrotation
					JOINT LeftArm
					{
						OFFSET 3.362410 1.200890 -0.311210
						CHANNELS 3 Zrotation Yrotation Xrotation
						JOINT LeftForeArm
						{
							OFFSET 4.983000 -0.000000 -0.000000
							CHANNELS 3 Zrotation Yrotation Xrotation
							JOINT LeftHand
							{
								OFFSET 3.483560 -0.000000 -0.000000
								CHANNELS 3 Zrotation Yrotation Xrotation
								JOINT LeftFingerBase
								{
									OFFSET 0.000000 0.000000 0.000000
									CHANNELS 3 Zrotation Yrotation Xrotation
									JOINT LeftHandIndex1
									{
										OFFSET 0.715260 -0.000000 -0.000000
										CHANNELS 3 Zrotation Yrotation Xrotation
										End Site
										{
											OFFSET 0.000000 0.000000 0.000000
										}
									}
								}
								JOINT LThumb
								{
									OFFSET 0.000000 0.000000 0.000000
									CHANNELS 3 Zrotation Yrotation Xrotation
									End Site
									{
										OFFSET 0.000000 0.000000 0.000000
									}
								}
							}
						}
					}
				}
				JOINT RightShoulder
				{
					OFFSET 0.000000 0.000000 0.000000
					CHANNELS 3 Zrotation Yrotation Xrotation
					JOINT RightArm
					{
						OFFSET -3.136600 1.374050 -0.404650
						CHANNELS 3 Zrotation Yrotation Xrotation
						JOINT RightForeArm
						{
							OFFSET -5.241900 -0.000000 -0.000000
							CHANNELS 3 Zrotation Yrotation Xrotation
							JOINT RightHand
							{
								OFFSET -3.444170 -0.000000 -0.000000
								CHANNELS 3 Zrotation Yrotation Xrotation
								JOINT RightFingerBase
								{
									OFFSET 0.000000 0.000000 0.000000
									CHANNELS 3 Zrotation Yrotation Xrotation
									JOINT RightHandIndex1
									{
										OFFSET -0.622530 -0.000000 -0.000000
										CHANNELS 3 Zrotation Yrotation Xrotation
										End Site
										{
											OFFSET 0.000000 0.000000 0.000000
										}
									}
								}
								JOINT RThumb
								{
									OFFSET 0.000000 0.000000 0.000000
									CHANNELS 3 Zrotation Yrotation Xrotation
									End Site
									{
										OFFSET 0.000000 0.000000 0.000000
									}
								}
							}
						}
					}
				}
			}
		}
	}
}
MOTION
Frames: 5
Frame Time: 0.008333
1.860393 17.545872 17.750445 1.412093 4.331964 23.128795 3.991250 0.467856 -0.123866 -29.476173 9.546620 -23.322329 5.969916 15.209587 46.423848 -13.155807 42.153471 -22.097725 5.981600 14.410500 44.907800 -5.374035 -0.563168 0.341280 30.410965 14.264016 -37.111976 -2.222700 -14.686085 38.358034 -0.617560 -16.541655 -42.274928 -5.890000 -14.320900 44.538600 -1.009980 -0.505437 -17.570786 0.643798 -0.551211 -6.662053 -1.603644 -0.309386 2.227315 -4.010253 -3.570365 -19.993987 5.608836 -3.846408 17.149545 0.872200 -1.487100 15.047800 -8.711446 -8.553165 2.766098 -80.538524 22.932747 5.173538 28.505061 -35.308667 -8.072718 -0.731062 1.431544 -3.458828 -2.748702 19.778885 -0.659700 -7.125000 0.000000 0.000000 -28.135100 46.184400 -0.893000 8.437832 9.699780 2.753623 73.491573 -14.291819 32.231614 -16.947481 20.598265 -2.774000 -2.151072 0.677470 -12.621141 -8.440599 15.508700 -1.623400 7.125000 0.000000 0.000000 14.242300 -15.733500 10.169900 
1.851728 17.549676 17.746958 1.424686 4.275567 23.139379 3.954851 0.441046 -0.134602 -29.496470 9.713775 -23.562890 6.267614 15.273653 46.412149 -14.954242 45.123679 -18.177981 5.434500 13.857000 42.667500 -5.362752 -0.537360 0.339864 30.249183 14.755545 -36.970177 -2.183370 -14.664320 38.251645 -0.733688 -16.505572 -42.679863 -5.936700 -14.366700 44.727100 -1.140336 -0.466282 -17.586210 0.633592 -0.477942 -6.620867 -1.515104 -0.273108 2.407722 -4.100959 -3.634631 -20.144179 5.670975 -3.899835 17.175430 0.930200 -1.512800 15.112400 -8.739541 -8.519025 2.778830 -80.329335 22.727822 5.419315 28.755201 -35.568956 -8.221456 -0.723156 1.437212 -3.564463 -2.678677 19.951028 -0.646700 -7.125000 0.000000 0.000000 -28.164000 46.338200 -1.009700 8.449571 9.667197 2.772749 73.400189 -14.436231 33.132755 -17.313957 20.991787 -2.867949 -2.173068 0.577272 -13.462392 -9.131154 15.087548 -1.748200 7.125000 0.000000 0.000000 13.815100 -16.043600 9.749900 
1.846867 17.553480 17.743894 1.519794 4.265694 23.151054 3.930408 0.423257 -0.142420 -29.619550 9.826066 -23.670364 6.414103 15.300836 46.348831 -15.808418 46.630717 -15.888650 5.076200 13.469100 41.150800 -5.354421 -0.524725 0.329191 30.102481 14.882293 -36.973821 -2.183604 -14.676131 38.273281 -0.702688 -16.700878 -42.783722 -5.931200 -14.361300 44.704900 -1.312000 -0.475728 -17.621673 0.621706 -0.456045 -6.569471 -1.453348 -0.261672 2.583015 -4.149243 -3.650277 -20.056206 5.721117 -3.913482 17.063305 0.968800 -1.523900 14.980900 -8.767937 -8.484747 2.801665 -80.159373 22.438804 5.447747 29.016490 -35.849749 -8.394525 -0.757496 1.464530 -3.653697 -2.891086 20.442254 -0.721300 -7.125000 0.000000 0.000000 -28.547600 46.722300 -1.319000 8.465379 9.619723 2.795683 73.327156 -14.564315 34.078951 -17.639859 21.345452 -2.958115 -2.206090 0.463906 -14.450052 -9.986553 14.724905 -1.910600 7.125000 0.000000 0.000000 13.279900 -16.283400 9.278900 
1.842957 17.552106 17.745056 1.574948 4.303097 23.183805 3.931122 0.418893 -0.153067 -29.694756 9.902178 -23.718272 6.468940 15.326207 46.409489 -15.904839 46.826289 -15.233132 4.991100 13.373700 40.784100 -5.354496 -0.521880 0.316803 30.063399 14.867534 -37.001953 -2.182929 -14.678502 38.275350 -0.654629 -16.835731 -42.757015 -5.828200 -14.259700 44.288200 -1.421754 -0.469026 -17.745128 0.616737 -0.422452 -6.516740 -1.386040 -0.242654 2.791362 -4.277963 -3.700401 -19.913138 5.794843 -3.955780 16.947043 1.043600 -1.557800 14.828800 -8.812153 -8.437070 2.834686 -79.983374 22.197788 5.543170 29.504931 -36.362637 -8.730149 -0.858514 1.544530 -3.737162 -3.531404 21.695518 -0.952000 -7.125000 0.000000 0.000000 -29.620500 47.675600 -2.134300 8.484178 9.553993 2.817386 73.217821 -14.776374 35.038612 -17.960161 21.699186 -3.050595 -2.235159 0.345850 -15.587394 -10.845376 14.360710 -2.066300 7.125000 0.000000 0.000000 12.737500 -16.525900 8.810600 
1.832074 17.549464 17.733961 1.740528 4.207984 23.182270 3.952911 0.411578 -0.164848 -29.920926 9.893820 -23.788513 6.435840 15.340864 46.510797 -15.677273 46.412986 -16.144033 5.052900 13.443100 41.050800 -5.369964 -0.508175 0.328884 29.764766 15.403339 -36.930169 -2.175467 -14.698567 38.296471 -0.714864 -16.984351 -43.145494 -5.792300 -14.224000 44.142300 -1.771504 -0.471018 -17.554195 0.613546 -0.373879 -6.511862 -1.190403 -0.212555 2.743493 -4.317734 -3.740636 -19.946204 5.756930 -3.997854 16.918093 1.010200 -1.581100 14.825100 -8.837518 -8.427845 2.845801 -79.877243 21.983422 5.456557 29.967787 -36.836071 -9.076314 -1.024271 1.638629 -3.569416 -4.763096 23.231072 -1.409700 -7.125000 0.000000 0.000000 -31.343900 48.776100 -3.210700 8.514327 9.538445 2.834614 73.088658 -15.062785 36.130206 -18.306772 22.047964 -3.174228 -2.325377 0.226268 -16.970408 -12.051530 14.514910 -2.367000 7.125000 0.000000 0.000000 11.977600 -16.256500 8.331700 
